<?xml version="1.0" encoding="utf-8"?>
<!-- Generator: Adobe Illustrator 14.0.0, SVG Export Plug-In . SVG Version: 6.00 Build 43363)  -->
<!DOCTYPE svg PUBLIC "-//W3C//DTD SVG 1.0//EN" "http://www.w3.org/TR/2001/REC-SVG-20010904/DTD/svg10.dtd">
<svg version="1.0" id="Layer_1" xmlns="http://www.w3.org/2000/svg" xmlns:xlink="http://www.w3.org/1999/xlink" x="0px" y="0px"
	 width="566px" height="284px" viewBox="0 0 566 284" enable-background="new 0 0 566 284" xml:space="preserve">
<g id="_x3C_austin_x3E_">
	<rect fill-rule="evenodd" clip-rule="evenodd" fill="#115F7E" width="566" height="284"/>
	<path fill-rule="evenodd" clip-rule="evenodd" fill="#202020" d="M331.5,78.5c1.615-0.282,1.722,0.945,3,1
		c-0.693,6.359,1.693,9.641,1,16c-1.555,3.555,3.396,0.604,3,3c2.168-0.168,0.453,3.547,1,5c3.925,0.408,4.787,3.88,7,6
		c1.026,19.13-1.353,40.593,0,61c0.097,1.461-1.495,6.306,2,6c4.474,1.227,2.82-4.377,3-7c0.491-7.163-1.166-19.846,1-26
		c-0.467-2.134,1.429-1.905,3-2c0.225-3.005,4.405-3.387,7-5c2.753-1.711,7.388-5.652,12-7c4.726,0.972,8.364,3.806,12,6
		c1.877,1.133,4.1,1.804,6,3c1.663,1.047,2.416,3.965,5,3c0,13,0,26,0,39c0,2.333,0,4.667,0,7c0.228,1.772-1.008,5.008,2,4
		c4.696,1.177,2.881-5.482,3-7c1.561-19.902-1.167-46.025,0-67c1.334-1.666,5.666-0.334,7-2c0.114-5.962,3.402-6.223,7-10
		c5.333,0,10.667,0,16,0c-0.145,2.812,2.449,2.884,5,3c1.365,3.866-0.435,3.944,1,7c0.845,2.155,6.375-0.375,7,2
		c2.32,24.68,0.343,53.657,1,80c2,0,4,0,6,0c4.051-3.83,0.292-11.508,2-16c2.989-2.011,9.435-0.565,14-1
		c-0.633-3.367,1.288-9.289-1-11c0.754-2.913,2.375-4.959,4-7c-1.044-6.377,2.175-8.492,2-14c2.131-2.535,3.519-5.814,6-8
		c-0.823-8.157,1.755-12.912,3-19c4.305,3.362,4.831,10.502,5,18c4.153,5.847,7.478,12.522,8,22c0.016,2.984,2.6,3.4,3,6
		c0,4,0,8,0,12c2.366,2.3,8.976,0.358,13,1c1.124,3.858,2.365,4.621,1,9c-3.065,3.184,1.691,4.185,1,8c5.667,0,11.333,0,17,0
		c2.949-0.821,5.58-3.221,8-5c2.372-1.744,6.191-1.448,6-6c2.868,1.465,2.111,6.556,7,6c1.456,2.877,6.291,2.376,7,6
		c0.061,15.646,1.459,35.807,1,55c-58.666,0-117.333,0-176,0c0,8,0,16,0,24c-64.337,1.666-135.662,1.666-200,0
		c0-7.667,0-15.333,0-23c-56.667-2.333-117.666-0.333-176-1c0-12.539,0-26.552,0-40c0-13.559-1.584-27.391,0-39
		c0.413-3.026,3.486-5.915,2-9c2.503-1.275,3.13,0.509,4-1c2.313-5.39-1.837-10.247,2-16c4.242-1.209,8.758-1.209,13,0
		c3.512,5.154,0.208,9.463,2,16c-0.715,2.715,4.715-0.715,4,2c0.958,6.376,2.958,11.708,2,20c0,2.333,0,4.667,0,7
		c0.228,1.772-1.008,5.008,2,4c6.188,0.617,1.59-11.209,3-16c-0.869-3.869,2.442-3.558,3-6c0-2.667,0-5.333,0-8
		c-0.467-2.134,1.429-1.905,3-2c0-3,0-6,0-9c9.296,0.435,11.078,0.701,20,0c1.935,3.199-1.008,7.571,3,10c0,2.667,0,5.333,0,8
		c-0.88,3.213,3.296,1.37,3,4c0.659,8.007-1.324,18.657,1,25c1,0,2,0,3,0c3.646-0.246,1.912-5.165,2-7
		c0.898-18.788-0.674-43.008,0-63c1.279-1.368,4.721-1.368,6,0c-0.484-3.817,0.284-6.383,2-8c7.979-10.11,32.068-8.886,35,6
		c-0.451,2.784,5.451-0.784,5,2c0,14,0,28,0,42c0.612,3.722-1.891,10.557,3,10c3.548,0.1,1.929-4.807,2-6
		c1.291-21.604,1.057-49.728,1-74c8.854,0.479,14.235,4.432,23,5c2.052,0.948,2.771,3.229,4,5c3,0,6,0,9,0
		c2.645-0.355,0.904-5.096,3-6c8.333,0,16.667,0,25,0c0,27.333,0,54.667,0,82c-1.003,4.67,1.744,5.59,6,5
		c2.332-17.002,0.335-38.332,1-57c-1.448-3.781,2.748-1.919,2-5c0-12.333,0-24.667,0-37c-0.947-3.614,3.938-1.395,6-2
		c0.435-4.565-1.011-11.011,1-14c8.667,0,17.333,0,26,0c1.968,2.698,0.595,8.738,1,13c-0.164,2.831,6.164-0.831,6,2
		c0,12.667,0,25.333,0,38c-0.88,3.213,3.296,1.37,3,4c0,12.333,0,24.667,0,37c0,2,0,4,0,6c0.228,1.772-1.008,5.008,2,4
		c5.152,0.402,2.853-6.34,3-9c0.553-10.025-0.413-24.367,0-35c-1.281-3.948,2.914-2.42,3-5c0-5.667,0-11.333,0-17
		c1.93-0.404,0.087-4.58,4-3c0.389-2.611,0.514-5.486,2-7c-1.008-3.008,2.228-1.772,4-2c0.875-3.792,0.337-8.997,6-8
		c0.134-4.533,2.447-6.887,3-11c4.329,0.005,4.602,4.065,7,6c3.05-1.283,2.676-5.991,7-6c1.189,2.811,2.25,5.75,3,9
		c2.435,2.565,6.741,3.259,6,9c0.257,2.077,4.394,0.273,5,2c-0.457,5.457,2.257,7.743,5,10c0.842,5.158,1.305,10.695,1,17
		c-1.448,3.781,2.748,1.919,2,5c-0.086,1.419-0.165,2.832,1,3c-2.28,10.72-0.373,25.627-1,38c0.622,3.712-1.625,10.292,2,11
		c6.679-0.083,4-11.664,4-18c0-20.13,0-45.654,0-66c3.465-0.202,1.432-5.902,7-4c-1.038-5.038,1.021-6.979,4-8
		C329.411,89.744,330.1,83.766,331.5,78.5z M187.5,231.5c0,14.333,0,28.667,0,43c64.334,0,128.667,0,193,0c0-15,0-30,0-45
		c-62.003-2.331-128.331-0.335-192-1C187.335,228.668,187.414,230.081,187.5,231.5z"/>
	<path fill-rule="evenodd" clip-rule="evenodd" fill="#FFDA23" d="M218.5,237.5c1.615-0.282,1.722,0.945,3,1
		c1.545,6.999,6.104,12.735,9,20c0.674,1.692,2.321,4.392,1,6c-5.121,0.454-3.926-5.407-6-8c-3.667,0-7.333,0-11,0
		c-3.277,2.056-1.085,9.582-8,8C209.705,254.705,215.873,247.873,218.5,237.5z M216.5,252.5c2.072-0.595,6.569,1.236,7-1
		c-2.242-1.091-1.758-4.909-4-6C218.669,248.003,216.76,249.427,216.5,252.5z"/>
	<path fill-rule="evenodd" clip-rule="evenodd" fill="#FFDA23" d="M243.5,237.5c1,0,2,0,3,0c2.699,6.301-1.337,19.337,3,24
		c2.656-0.01,5.711,0.378,7-1c4.468-4.199-0.065-17.398,3-23c4.269,0.398,0.953,8.38,2,12c-0.055,4.612,0.443,9.776-1,13
		c-3.965,1.83-5.218,3.357-9,3C241.2,264.527,243.577,249.955,243.5,237.5z"/>
	<path fill-rule="evenodd" clip-rule="evenodd" fill="#FFDA23" d="M287.5,242.5c-3.535,3.241-3.516-3.134-8-2
		c-0.81,0.19-0.997,1.003-2,1c0.082,9.763,10.324,7.365,11,15c0.592,6.693-4.496,9.372-9,9c-2.224-0.184-8.349-2.382-6-7
		c2.409-2.115,3.313,3.337,6,4c1.991-1.009,4.271-1.729,5-4c0.112-8.247-11.461-6.936-11-15
		C273.903,236.443,284.213,233.104,287.5,242.5z"/>
	<path fill-rule="evenodd" clip-rule="evenodd" fill="#FFDA23" d="M297.5,237.5c5.017,0.65,12.644-1.311,16,1
		c0.582,3.582-2.959,3.041-6,3c-0.658,7.342,1.322,17.322-1,23c-4.944,0.657-2.832-6.043-3-10c-0.181-4.247,0.14-8.729,0-12
		C302.033,240.3,295.781,242.885,297.5,237.5z"/>
	<path fill-rule="evenodd" clip-rule="evenodd" fill="#FFDA23" d="M323.5,237.5c1,0,2,0,3,0c-0.441,6.458,0.579,14.474,0,22
		c-0.118,1.533,1.214,5.804-2,5c-2.16,0.919-1.888-5.162-2-6c-0.566-4.247,0.411-11.605,0-18
		C322.218,238.885,323.445,238.778,323.5,237.5z"/>
	<path fill-rule="evenodd" clip-rule="evenodd" fill="#FFDA23" d="M339.5,237.5c7.19,5.143,11.046,13.621,18,19
		c0.654-6.012-1.317-14.65,1-19c3.335-0.551,1.902,4.038,2,6c0.281,5.656-0.208,14.475,0,21c-4.162-1.527-6.302-5.928-9-9
		c-2.752-3.134-5.611-6.474-9-9c-0.653,5.68,1.315,13.982-1,18c-3.541-0.091-1.902-6.898-2-11c-0.109-4.584,0.085-9.308,0-13
		C339.5,239.5,339.5,238.5,339.5,237.5z"/>
</g>
<circle id="_x3C_moon_x3E_" fill-rule="evenodd" clip-rule="evenodd" fill="#E6E6E6" cx="93" cy="70" r="29.5"/>
<path id="_x3C_batWingS_x3E_" fill-rule="evenodd" clip-rule="evenodd" fill="#202020" d="M394.359,47.668
	c4.464,5.989,22.635,12.991,22.502-0.944c1.471-0.274,1.396,1.91,2.353,2.453c0.386-1.218,0.964-2.315,0.929-3.798
	c5.438,12.955,19.999-0.152,20.818-8.332c0.98,1.021,1.938,2.079,3.051,2.892c11.445-1.686,19.589,1.882,28.474,4.271
	c-4.813,1.485-16.243-0.492-15.575,7.734c-4.739-0.373-10.059,2.985-10.768,7.835c-1.832-0.7-3.581-1.533-5.763-1.676
	c-2.056,0.817-3.52,2.006-3.899,3.877c-2.064-5.932-13.445-6.354-13.46,1.274c-3.388-5.341-13.596-3.011-12.812,4.116
	c-2.029-0.128-3.532-1.093-5.633-1.107c-2.314,0.979-3.053,2.95-5.035,4.137c-2.061-4.954-8.907-4.285-12.532-2.524
	c-2.412-6.77-11.771-2.24-17.258,0.347c2.932-6.646,14.45-11.518,21.537-15.67C393.301,51.374,394.602,50.231,394.359,47.668z"/>
<path id="_x3C_batWingsT_x3E_" fill-rule="evenodd" clip-rule="evenodd" fill="#202020" d="M477.708,68.575
	c17.504,0.324,29.833,10.805,33.931,26.453c2.197-0.677,2.387-3.362,2.875-5.75c1.136,0.397,1.533,1.533,1.726,2.875
	c1.271-0.454,1.438-2.011,2.3-2.875c0.876,1.808,1.089,4.278,2.3,5.75c5.746-14.766,15.603-25.42,34.505-27.028
	c-4.171,2.542-9.227,7.254-6.9,14.377c-6.768,0.903-12.627,5.772-9.776,14.377c-9.801,1.55-18.866,8.186-21.853,18.402
	c-4.364-8.863-9.565-16.888-21.854-17.827c1.34-8.044-1.373-14.457-9.776-14.377C486.393,76.096,483.356,70.295,477.708,68.575z"/>
</svg>
