<?xml version="1.0" encoding="utf-8"?>
<!-- Generator: Adobe Illustrator 14.0.0, SVG Export Plug-In . SVG Version: 6.00 Build 43363)  -->
<!DOCTYPE svg PUBLIC "-//W3C//DTD SVG 1.1//EN" "http://www.w3.org/Graphics/SVG/1.1/DTD/svg11.dtd">
<svg version="1.1" id="Layer_1" xmlns="http://www.w3.org/2000/svg" xmlns:xlink="http://www.w3.org/1999/xlink" x="0px" y="0px"
	 width="1420.5px" height="216px" viewBox="0 0 1420.5 216" enable-background="new 0 0 1420.5 216" xml:space="preserve">
<g>
	<g>
		<defs>
			<rect id="SVGID_1_" width="216" height="216"/>
		</defs>
		<clipPath id="SVGID_2_">
			<use xlink:href="#SVGID_1_"  overflow="visible"/>
		</clipPath>
		<path clip-path="url(#SVGID_2_)" fill="#F7966C" d="M108,194.824c0,0-3.213,0.182-3.687-3.981
			c-0.475-4.163-0.438-5.808-1.39-14.913c-1.461-11.76-4.747-33.135-5.128-38.699c-0.378-5.565-0.256-11.982,0.885-20.205
			c0.498-3.586,0.586-7.237,0.586-7.237c-1.52,2.147-2.514,4.25-3.526,7.334c-1.992,6.069-1.708,12.233-2.758,28.104
			c-0.885,13.426-4.025,24.174-6.509,31.084c-1.375,3.826-2.528,6.912-3.249,7.586c-1.139,1.646-2.715,2.446-4.633,1.822
			c-4.445-1.443-2.034-7.322-2.034-7.322c2.012-8.062,2.79-13.752,2.318-22.859c-0.778-7.208-2.013-11.381-2.71-23.682
			c-0.819-15.02,8.667-26.371,8.667-26.371S68.58,116.807,70.887,130.21c0.283,5.217,3.736,14.772,0.097,27.888
			c-1.542,5.543-4.593,10.836-6.453,13.025c-1.232,1.453-2.342,1.904-3.417,1.813c-0.733-0.063-5.194-0.895-2.063-7.062
			c5.383-10.604,2.063-23.459,2.063-23.459c-1.391-6.452-4.281-13.438-3.126-23.967c1.231-13.342,13.626-22.956,19.16-27.603
			c2.055-1.612,0.692-1.644-1.199-3.804c-6.29-6.989-9.993-15.961-9.993-25.88c0-22.085,18.812-39.988,42.044-39.988
			c23.234,0,42.046,17.903,42.046,39.988c0,9.919-3.702,18.891-9.994,25.88c-1.892,2.16-3.253,2.192-1.198,3.804
			c5.532,4.647,17.929,14.261,19.16,27.603c1.154,10.528-1.736,17.515-3.127,23.967c0,0-3.318,12.854,2.063,23.459
			c3.131,6.167-1.331,6.997-2.063,7.062c-1.076,0.092-2.185-0.359-3.416-1.813c-1.859-2.189-4.914-7.482-6.453-13.025
			c-3.639-13.115-0.186-22.671,0.096-27.888c2.309-13.403-13.944-24.726-13.944-24.726s9.487,11.352,8.669,26.372
			c-0.697,12.299-1.934,16.473-2.71,23.681c-0.474,9.108,0.306,14.799,2.317,22.86c0,0,2.412,5.879-2.032,7.321
			c-1.921,0.624-3.496-0.177-4.636-1.821c-0.721-0.674-1.873-3.762-3.248-7.588c-2.483-6.908-5.623-17.656-6.51-31.084
			c-1.049-15.869-0.768-22.035-2.758-28.104c-1.015-3.084-2.007-5.186-3.525-7.334c0,0,0.089,3.652,0.586,7.238
			c1.143,8.222,1.264,14.639,0.885,20.203c-0.381,5.565-3.667,26.94-5.128,38.701c-0.954,9.104-0.915,10.75-1.392,14.912
			C111.215,195.006,108,194.824,108,194.824"/>
	</g>
	<g>
		<defs>
			<rect id="SVGID_3_" width="216" height="216"/>
		</defs>
		<clipPath id="SVGID_4_">
			<use xlink:href="#SVGID_3_"  overflow="visible"/>
		</clipPath>
		
			<path clip-path="url(#SVGID_4_)" fill="none" stroke="#F7966C" stroke-width="0.661" stroke-linejoin="round" stroke-miterlimit="9" d="
			M108,194.824c0,0-3.213,0.182-3.687-3.981c-0.475-4.163-0.438-5.808-1.39-14.913c-1.461-11.76-4.747-33.135-5.128-38.699
			c-0.378-5.565-0.256-11.982,0.885-20.205c0.498-3.586,0.586-7.237,0.586-7.237c-1.52,2.147-2.514,4.25-3.526,7.334
			c-1.992,6.069-1.708,12.233-2.758,28.104c-0.885,13.426-4.025,24.174-6.509,31.084c-1.375,3.826-2.528,6.912-3.249,7.586
			c-1.139,1.646-2.715,2.446-4.633,1.822c-4.445-1.443-2.034-7.322-2.034-7.322c2.012-8.062,2.79-13.752,2.318-22.859
			c-0.778-7.208-2.013-11.381-2.71-23.682c-0.819-15.02,8.667-26.371,8.667-26.371S68.58,116.807,70.887,130.21
			c0.283,5.217,3.736,14.772,0.097,27.888c-1.542,5.543-4.593,10.836-6.453,13.025c-1.232,1.453-2.342,1.904-3.417,1.813
			c-0.733-0.063-5.194-0.895-2.063-7.062c5.383-10.604,2.063-23.459,2.063-23.459c-1.391-6.452-4.281-13.438-3.126-23.967
			c1.231-13.342,13.626-22.956,19.16-27.603c2.055-1.612,0.692-1.644-1.199-3.804c-6.29-6.989-9.993-15.961-9.993-25.88
			c0-22.085,18.812-39.988,42.044-39.988c23.234,0,42.046,17.903,42.046,39.988c0,9.919-3.702,18.891-9.994,25.88
			c-1.892,2.16-3.253,2.192-1.198,3.804c5.532,4.647,17.929,14.261,19.16,27.603c1.154,10.528-1.736,17.515-3.127,23.967
			c0,0-3.318,12.854,2.063,23.459c3.131,6.167-1.331,6.997-2.063,7.062c-1.076,0.092-2.185-0.359-3.416-1.813
			c-1.859-2.189-4.914-7.482-6.453-13.025c-3.639-13.115-0.186-22.671,0.096-27.888c2.309-13.403-13.944-24.726-13.944-24.726
			s9.487,11.352,8.669,26.372c-0.697,12.299-1.934,16.473-2.71,23.681c-0.474,9.108,0.306,14.799,2.317,22.86
			c0,0,2.412,5.879-2.032,7.321c-1.921,0.624-3.496-0.177-4.636-1.821c-0.721-0.674-1.873-3.762-3.248-7.588
			c-2.483-6.908-5.623-17.656-6.51-31.084c-1.049-15.869-0.768-22.035-2.758-28.104c-1.015-3.084-2.007-5.186-3.525-7.334
			c0,0,0.089,3.652,0.586,7.238c1.143,8.222,1.264,14.639,0.885,20.203c-0.381,5.565-3.667,26.94-5.128,38.701
			c-0.954,9.104-0.915,10.75-1.392,14.912C111.215,195.006,108,194.824,108,194.824z"/>
	</g>
	<g>
		<defs>
			<rect id="SVGID_5_" width="216" height="216"/>
		</defs>
		<clipPath id="SVGID_6_">
			<use xlink:href="#SVGID_5_"  overflow="visible"/>
		</clipPath>
		<polygon clip-path="url(#SVGID_6_)" fill="#FFFFFF" points="110.749,48.414 108.025,39.022 105.253,48.417 		"/>
	</g>
	<g>
		<defs>
			<rect id="SVGID_7_" width="216" height="216"/>
		</defs>
		<clipPath id="SVGID_8_">
			<use xlink:href="#SVGID_7_"  overflow="visible"/>
		</clipPath>
		
			<polygon clip-path="url(#SVGID_8_)" fill="none" stroke="#FFFFFF" stroke-width="1.354" stroke-linecap="round" stroke-linejoin="round" stroke-miterlimit="9" points="
			110.749,48.414 108.025,39.022 105.253,48.417 		"/>
	</g>
	<g>
		<defs>
			<rect id="SVGID_9_" width="216" height="216"/>
		</defs>
		<clipPath id="SVGID_10_">
			<use xlink:href="#SVGID_9_"  overflow="visible"/>
		</clipPath>
		<polygon clip-path="url(#SVGID_10_)" fill="#FFFFFF" points="118.536,53.612 121.396,44.26 113.934,50.606 		"/>
	</g>
	<g>
		<defs>
			<rect id="SVGID_11_" width="216" height="216"/>
		</defs>
		<clipPath id="SVGID_12_">
			<use xlink:href="#SVGID_11_"  overflow="visible"/>
		</clipPath>
		
			<polygon clip-path="url(#SVGID_12_)" fill="none" stroke="#FFFFFF" stroke-width="1.354" stroke-linecap="round" stroke-linejoin="round" stroke-miterlimit="9" points="
			118.536,53.612 121.396,44.26 113.934,50.606 		"/>
	</g>
	<g>
		<defs>
			<rect id="SVGID_13_" width="216" height="216"/>
		</defs>
		<clipPath id="SVGID_14_">
			<use xlink:href="#SVGID_13_"  overflow="visible"/>
		</clipPath>
		<polygon clip-path="url(#SVGID_14_)" fill="#FFFFFF" points="97.464,53.612 94.604,44.26 102.067,50.606 		"/>
	</g>
	<g>
		<defs>
			<rect id="SVGID_15_" width="216" height="216"/>
		</defs>
		<clipPath id="SVGID_16_">
			<use xlink:href="#SVGID_15_"  overflow="visible"/>
		</clipPath>
		
			<polygon clip-path="url(#SVGID_16_)" fill="none" stroke="#FFFFFF" stroke-width="1.354" stroke-linecap="round" stroke-linejoin="round" stroke-miterlimit="9" points="
			97.464,53.612 94.604,44.26 102.067,50.606 		"/>
	</g>
	<g>
		<defs>
			<rect id="SVGID_17_" width="216" height="216"/>
		</defs>
		<clipPath id="SVGID_18_">
			<use xlink:href="#SVGID_17_"  overflow="visible"/>
		</clipPath>
		<path clip-path="url(#SVGID_18_)" fill="#79C9AE" d="M122.186,60.224c0,7.833-6.353,14.185-14.187,14.185
			c-7.833,0-14.183-6.352-14.183-14.185c0-7.835,6.35-14.186,14.183-14.186C115.833,46.038,122.186,52.389,122.186,60.224"/>
	</g>
	<g>
		<defs>
			<rect id="SVGID_19_" width="216" height="216"/>
		</defs>
		<clipPath id="SVGID_20_">
			<use xlink:href="#SVGID_19_"  overflow="visible"/>
		</clipPath>
		
			<circle clip-path="url(#SVGID_20_)" fill="none" stroke="#FFFFFF" stroke-width="3.08" stroke-miterlimit="9" cx="108" cy="60.224" r="14.185"/>
	</g>
	<g>
		<defs>
			<rect id="SVGID_21_" width="216" height="216"/>
		</defs>
		<clipPath id="SVGID_22_">
			<use xlink:href="#SVGID_21_"  overflow="visible"/>
		</clipPath>
		<path clip-path="url(#SVGID_22_)" fill="#FFFFFF" d="M111.932,60.224c0,2.17-1.761,3.932-3.932,3.932
			c-2.172,0-3.931-1.762-3.931-3.932c0-2.171,1.759-3.933,3.931-3.933C110.171,56.291,111.932,58.053,111.932,60.224"/>
	</g>
	<g>
		<defs>
			<rect id="SVGID_23_" width="216" height="216"/>
		</defs>
		<clipPath id="SVGID_24_">
			<use xlink:href="#SVGID_23_"  overflow="visible"/>
		</clipPath>
		
			<circle clip-path="url(#SVGID_24_)" fill="none" stroke="#FFFFFF" stroke-width="0.661" stroke-miterlimit="9" cx="108" cy="60.224" r="3.932"/>
	</g>
	<g>
		<defs>
			<rect id="SVGID_25_" width="216" height="216"/>
		</defs>
		<clipPath id="SVGID_26_">
			<use xlink:href="#SVGID_25_"  overflow="visible"/>
		</clipPath>
		<path clip-path="url(#SVGID_26_)" fill="#FFFFFF" d="M107.999,95.493c-9.708,0-17.888-2.996-22.868-7.359
			c4.251,4.938,12.691,8.957,22.868,8.957c10.181,0,18.619-4.019,22.87-8.958C125.891,92.497,117.711,95.493,107.999,95.493"/>
	</g>
	<g>
		<defs>
			<rect id="SVGID_27_" width="216" height="216"/>
		</defs>
		<clipPath id="SVGID_28_">
			<use xlink:href="#SVGID_27_"  overflow="visible"/>
		</clipPath>
		
			<path clip-path="url(#SVGID_28_)" fill="none" stroke="#FFFFFF" stroke-width="0.882" stroke-linejoin="round" stroke-miterlimit="9" d="
			M107.999,95.493c-9.708,0-17.888-2.996-22.868-7.359c4.251,4.938,12.691,8.957,22.868,8.957c10.181,0,18.619-4.019,22.87-8.958
			C125.891,92.497,117.711,95.493,107.999,95.493z"/>
	</g>
	<g>
		<defs>
			<rect id="SVGID_29_" width="216" height="216"/>
		</defs>
		<clipPath id="SVGID_30_">
			<use xlink:href="#SVGID_29_"  overflow="visible"/>
		</clipPath>
		<path clip-path="url(#SVGID_30_)" fill="#FFFFFF" d="M107.999,100.351c-9.708,0-17.888-2.996-22.868-7.36
			c4.251,4.938,12.691,8.958,22.868,8.958c10.181,0,18.619-4.02,22.87-8.959C125.891,97.355,117.711,100.351,107.999,100.351"/>
	</g>
	<g>
		<defs>
			<rect id="SVGID_31_" width="216" height="216"/>
		</defs>
		<clipPath id="SVGID_32_">
			<use xlink:href="#SVGID_31_"  overflow="visible"/>
		</clipPath>
		
			<path clip-path="url(#SVGID_32_)" fill="none" stroke="#FFFFFF" stroke-width="0.882" stroke-linejoin="round" stroke-miterlimit="9" d="
			M107.999,100.351c-9.708,0-17.888-2.996-22.868-7.36c4.251,4.938,12.691,8.958,22.868,8.958c10.181,0,18.619-4.02,22.87-8.959
			C125.891,97.355,117.711,100.351,107.999,100.351z"/>
	</g>
</g>
<g>
	<path fill="#202020" d="M223.001,68.595h24.302c15.801,0,24.602,8.601,24.602,20.001c0,5.6-2.9,11.9-8.9,14.601
		c7.2,2.2,12.101,8.5,12.101,15.901c0,12.7-8.001,19.501-26.502,19.501h-25.602V68.595z M246.803,80.596h-9.4v17.701h9.4
		c7.801,0,10.7-3.3,10.7-8.901C257.503,83.796,254.604,80.596,246.803,80.596z M237.402,110.298v16.301h12.4
		c7.601,0,10.4-3,10.4-8.101c0-5.1-2.8-8.2-10.4-8.2H237.402z"/>
	<path fill="#202020" d="M321.502,68.595V138.6h-14.401V68.595H321.502z"/>
	<path fill="#202020" d="M400.202,128.199H370l-4,10.4h-15.001l28.302-70.004h11.601l28.302,70.004h-15.001L400.202,128.199z
		 M374.601,116.198h21.001l-10.501-27.202L374.601,116.198z"/>
	<path fill="#202020" d="M448.199,68.595H458.8l33.302,43.903V68.595h14.401V138.6h-10.601l-33.302-44.003V138.6h-14.401V68.595z"/>
	<path fill="#202020" d="M576,67.396c16.901,0,31.502,9.9,36.002,25.401h-15.4c-3.801-8.101-11.801-13.001-20.602-13.001
		c-12.4,0-22.901,9.5-22.901,23.802c0,14.301,10.501,23.801,22.901,23.801c8.801,0,16.801-4.9,20.602-13h15.4
		c-4.5,15.5-19.101,25.401-36.002,25.401c-20.701,0-37.502-14.701-37.502-36.202C538.498,82.096,555.299,67.396,576,67.396z"/>
	<path fill="#202020" d="M683.7,128.199h-30.202l-4,10.4h-15.001l28.302-70.004h11.601l28.302,70.004H687.7L683.7,128.199z
		 M658.099,116.198H679.1l-10.501-27.202L658.099,116.198z"/>
	<path fill="#202020" d="M821.6,68.595l-25.701,36.202L825.8,138.6h-18.001l-26.701-30.802V138.6h-14.401V68.595h14.401v34.402
		l23.701-34.402H821.6z"/>
	<path fill="#202020" d="M884.798,67.396c21.001,0,37.503,15,37.503,36.202c0,21.201-16.502,36.202-37.503,36.202
		s-37.502-15.001-37.502-36.202C847.296,82.396,863.797,67.396,884.798,67.396z M884.798,127.398c12.701,0,22.901-9.7,22.901-23.801
		c0-14.101-10.2-23.802-22.901-23.802c-12.7,0-22.901,9.701-22.901,23.802C861.896,117.698,872.098,127.398,884.798,127.398z"/>
	<path fill="#202020" d="M954.295,68.595h14.401v57.803h28.102V138.6h-42.503V68.595z"/>
	<path fill="#202020" d="M1028.294,68.595h43.003v12.201h-28.602v18.801h24.001v12.201h-24.001v14.601h29.502V138.6h-43.903V68.595z
		"/>
	<path fill="#202020" d="M1106.193,68.595h10.601l33.302,43.903V68.595h14.401V138.6h-10.601l-33.302-44.003V138.6h-14.401V68.595z"
		/>
	<path fill="#202020" d="M1224.894,138.6h-23.401V68.595h23.401c22.701,0,38.003,12.801,38.003,35.002
		C1262.896,125.898,1247.595,138.6,1224.894,138.6z M1224.994,80.796h-9.101v45.603h9.101c13.101,0,23.301-7.6,23.301-22.701
		C1248.295,88.396,1238.095,80.796,1224.994,80.796z"/>
	<path fill="#202020" d="M1327.394,67.396c21.001,0,37.503,15,37.503,36.202c0,21.201-16.502,36.202-37.503,36.202
		s-37.502-15.001-37.502-36.202C1289.892,82.396,1306.393,67.396,1327.394,67.396z M1327.394,127.398
		c12.701,0,22.901-9.7,22.901-23.801c0-14.101-10.2-23.802-22.901-23.802c-12.7,0-22.901,9.701-22.901,23.802
		C1304.492,117.698,1314.693,127.398,1327.394,127.398z"/>
</g>
</svg>
